<mxfile host="app.diagrams.net" modified="2024-05-23T20:30:28.112Z" agent="Mozilla/5.0 (Windows NT 10.0; Win64; x64) AppleWebKit/537.36 (KHTML, like Gecko) Chrome/124.0.0.0 Safari/537.36 Edg/124.0.0.0" version="24.2.1" etag="cT_vjI_e7DbnTgc8EwNc" type="github">
  <diagram name="Page-1" id="gbcMGxQb3vcf81WNWsG6">
    <mxGraphModel>
      <root>
        <mxCell id="0" />
        <mxCell id="1" parent="0" />
      </root>
    </mxGraphModel>
  </diagram>
</mxfile>
